<?xml version="1.0" encoding="UTF-8" standalone="no"?>
<!-- Created with Inkscape (http://www.inkscape.org/) -->

<svg
   xmlns:dc="http://purl.org/dc/elements/1.1/"
   xmlns:cc="http://creativecommons.org/ns#"
   xmlns:rdf="http://www.w3.org/1999/02/22-rdf-syntax-ns#"
   xmlns:svg="http://www.w3.org/2000/svg"
   xmlns="http://www.w3.org/2000/svg"
   xmlns:xlink="http://www.w3.org/1999/xlink"
   xmlns:sodipodi="http://sodipodi.sourceforge.net/DTD/sodipodi-0.dtd"
   xmlns:inkscape="http://www.inkscape.org/namespaces/inkscape"
   width="73mm"
   height="94mm"
   viewBox="0 0 73 94"
   version="1.1"
   id="svg8"
   inkscape:version="0.92.3 (2405546, 2018-03-11)"
   sodipodi:docname="Logo.svg">
  <defs
     id="defs2">
    <linearGradient
       inkscape:collect="always"
       id="linearGradient4578">
      <stop
         style="stop-color:#000000;stop-opacity:1;"
         offset="0"
         id="stop4574" />
      <stop
         style="stop-color:#000000;stop-opacity:0;"
         offset="1"
         id="stop4576" />
    </linearGradient>
    <inkscape:perspective
       sodipodi:type="inkscape:persp3d"
       inkscape:vp_x="-107.14293 : 39.661959 : 1"
       inkscape:vp_y="0 : 772.95959 : 0"
       inkscape:vp_z="267.73457 : 39.661959 : 1"
       inkscape:persp3d-origin="80.29579 : 1.400405 : 1"
       id="perspective3743" />
    <radialGradient
       inkscape:collect="always"
       xlink:href="#linearGradient4578"
       id="radialGradient4580"
       cx="94.044907"
       cy="91.142281"
       fx="94.044907"
       fy="91.142281"
       r="35.832939"
       gradientTransform="matrix(1,0,0,1.2860606,0,-26.072218)"
       gradientUnits="userSpaceOnUse" />
    <radialGradient
       inkscape:collect="always"
       xlink:href="#linearGradient4578"
       id="radialGradient4592"
       gradientUnits="userSpaceOnUse"
       gradientTransform="matrix(1,0,0,1.2860606,-57.160774,134.21448)"
       cx="94.044907"
       cy="91.142281"
       fx="94.044907"
       fy="91.142281"
       r="35.832939" />
    <radialGradient
       inkscape:collect="always"
       xlink:href="#linearGradient4578"
       id="radialGradient4594"
       gradientUnits="userSpaceOnUse"
       gradientTransform="matrix(1,0,0,1.2860606,-57.160774,134.21448)"
       cx="94.044907"
       cy="91.142281"
       fx="94.044907"
       fy="91.142281"
       r="35.832939" />
    <radialGradient
       inkscape:collect="always"
       xlink:href="#linearGradient4578"
       id="radialGradient4596"
       gradientUnits="userSpaceOnUse"
       gradientTransform="matrix(1,0,0,1.2860606,-57.160774,134.21448)"
       cx="94.044907"
       cy="91.142281"
       fx="94.044907"
       fy="91.142281"
       r="35.832939" />
    <radialGradient
       inkscape:collect="always"
       xlink:href="#linearGradient4578"
       id="radialGradient4598"
       gradientUnits="userSpaceOnUse"
       gradientTransform="matrix(1,0,0,1.2860606,-57.160774,134.21448)"
       cx="94.044907"
       cy="91.142281"
       fx="94.044907"
       fy="91.142281"
       r="35.832939" />
    <radialGradient
       inkscape:collect="always"
       xlink:href="#linearGradient4578"
       id="radialGradient4600"
       gradientUnits="userSpaceOnUse"
       gradientTransform="matrix(1,0,0,1.2860606,-57.160774,134.21448)"
       cx="94.044907"
       cy="91.142281"
       fx="94.044907"
       fy="91.142281"
       r="35.832939" />
    <radialGradient
       inkscape:collect="always"
       xlink:href="#linearGradient4578"
       id="radialGradient4602"
       gradientUnits="userSpaceOnUse"
       gradientTransform="matrix(1,0,0,1.2860606,-57.160774,134.21448)"
       cx="94.044907"
       cy="91.142281"
       fx="94.044907"
       fy="91.142281"
       r="35.832939" />
  </defs>
  <sodipodi:namedview
     id="base"
     pagecolor="#ffffff"
     bordercolor="#666666"
     borderopacity="1.0"
     inkscape:pageopacity="0.0"
     inkscape:pageshadow="2"
     inkscape:zoom="0.49497475"
     inkscape:cx="400"
     inkscape:cy="243.36891"
     inkscape:document-units="mm"
     inkscape:current-layer="layer1"
     showgrid="false"
     inkscape:snap-bbox="false"
     inkscape:snap-grids="false"
     inkscape:window-width="1366"
     inkscape:window-height="705"
     inkscape:window-x="-8"
     inkscape:window-y="-8"
     inkscape:window-maximized="1"
     inkscape:snap-to-guides="false" />
  <metadata
     id="metadata5">
    <rdf:RDF>
      <cc:Work
         rdf:about="">
        <dc:format>image/svg+xml</dc:format>
        <dc:type
           rdf:resource="http://purl.org/dc/dcmitype/StillImage" />
        <dc:title></dc:title>
      </cc:Work>
    </rdf:RDF>
  </metadata>
  <g
     inkscape:label="Capa 1"
     inkscape:groupmode="layer"
     id="layer1"
     transform="translate(0,-203)">
    <g
       sodipodi:type="inkscape:box3d"
       id="g3745"
       inkscape:perspectiveID="#perspective3743"
       inkscape:corner0="0.72307833 : 0.13717552 : 0 : 1"
       inkscape:corner7="0.31832837 : -0.018016723 : 0.25 : 1"
       style="stroke:url(#radialGradient4580);stroke-opacity:1">
      <path
         sodipodi:type="inkscape:box3dside"
         id="path3747"
         style="fill:#353564;fill-rule:evenodd;stroke:url(#radialGradient4592);stroke-width:1.1746639;stroke-linejoin:round;stroke-opacity:1"
         inkscape:box3dsidetype="6"
         d="m 1.6383812,218.00751 v 69.61804 l 33.7158678,-3.83759 v -60.79705 z"
         points="1.6383812,287.62555 35.354249,283.78796 35.354249,222.99091 1.6383812,218.00751 " />
      <path
         sodipodi:type="inkscape:box3dside"
         id="path3755"
         style="fill:#afafde;fill-rule:evenodd;stroke:url(#radialGradient4594);stroke-width:1.1746639;stroke-linejoin:round;stroke-opacity:1"
         inkscape:box3dsidetype="13"
         d="m 1.6383812,287.62555 33.3977738,9.2988 37.093383,-6.31027 -36.775289,-6.82612 z"
         points="35.036155,296.92435 72.129538,290.61408 35.354249,283.78796 1.6383812,287.62555 " />
      <path
         sodipodi:type="inkscape:box3dside"
         id="path3757"
         style="fill:#e9e9ff;fill-rule:evenodd;stroke:url(#radialGradient4596);stroke-width:1.1746639;stroke-linejoin:round;stroke-opacity:1"
         inkscape:box3dsidetype="11"
         d="m 35.354249,222.99091 36.775289,-8.86421 v 76.48738 l -36.775289,-6.82612 z"
         points="72.129538,214.1267 72.129538,290.61408 35.354249,283.78796 35.354249,222.99091 " />
      <path
         sodipodi:type="inkscape:box3dside"
         id="path3749"
         style="fill:#4d4d9f;fill-rule:evenodd;stroke:url(#radialGradient4598);stroke-width:1.1746639;stroke-linejoin:round;stroke-opacity:1"
         inkscape:box3dsidetype="5"
         d="m 1.6383812,218.00751 33.3977738,-12.07516 37.093383,8.19435 -36.775289,8.86421 z"
         points="35.036155,205.93235 72.129538,214.1267 35.354249,222.99091 1.6383812,218.00751 " />
      <path
         sodipodi:type="inkscape:box3dside"
         id="path3753"
         style="fill:#d7d7ff;fill-rule:evenodd;stroke:url(#radialGradient4600);stroke-width:1.1746639;stroke-linejoin:round;stroke-opacity:1"
         inkscape:box3dsidetype="14"
         d="m 35.036155,205.93235 v 90.992 l 37.093383,-6.31027 V 214.1267 Z"
         points="35.036155,296.92435 72.129538,290.61408 72.129538,214.1267 35.036155,205.93235 " />
      <path
         sodipodi:type="inkscape:box3dside"
         id="path3751"
         style="fill:#8686bf;fill-rule:evenodd;stroke:url(#radialGradient4602);stroke-width:1.1746639;stroke-linejoin:round;stroke-opacity:1"
         inkscape:box3dsidetype="3"
         d="M 1.6383812,218.00751 35.036155,205.93235 v 90.992 l -33.3977738,-9.2988 z"
         points="35.036155,205.93235 35.036155,296.92435 1.6383812,287.62555 1.6383812,218.00751 " />
    </g>
    <path
       style="fill:none;stroke:#000043;stroke-width:2.0999999;stroke-linecap:butt;stroke-linejoin:miter;stroke-miterlimit:4;stroke-dasharray:none;stroke-opacity:1"
       d="M 11.823946,229.83247 48.17258,212.72722 h 0.534537 v 0 l -24.588773,11.22532 0.534541,41.15947 -0.534541,-18.70883 -11.759858,4.27631 31.537801,-11.75986 -8.018084,2.6727 1.069078,39.02122 -9.621702,2.67267 9.087164,-2.67267 v -16.57062"
       id="path3763"
       inkscape:connector-curvature="0" />
    <path
       style="fill:none;stroke:#000043;stroke-width:2.0999999;stroke-linecap:butt;stroke-linejoin:miter;stroke-miterlimit:4;stroke-dasharray:none;stroke-opacity:1"
       d="m 43.10113,282.62283 4.276266,-40.62483 6.948931,45.43565 v 0"
       id="path3765"
       inkscape:connector-curvature="0" />
    <path
       style="fill:none;stroke:#000043;stroke-width:2.0999999;stroke-linecap:butt;stroke-linejoin:miter;stroke-miterlimit:4;stroke-dasharray:none;stroke-opacity:1"
       d="m 61.858135,268.185 c -0.712717,0.17817 -1.441184,0.30222 -2.138138,0.53453 -0.37797,0.126 -0.678387,0.45641 -1.069054,0.53454 -0.33512,0.067 -2.805995,-0.13374 -3.207212,0 -0.23904,0.0797 -0.29548,0.45485 -0.534527,0.53453 -0.33807,0.11269 -0.712717,0 -1.069064,0 -0.17818,0 -0.37517,-0.0797 -0.534537,0 -1.573021,0.78653 0.829744,0.53454 -1.603591,0.53454 -0.35636,0 -0.731007,-0.11269 -1.069074,0 -0.37798,0.12599 -0.691087,0.40855 -1.069064,0.53454 -0.33807,0.11268 -0.750337,-0.15937 -1.069074,0 -0.22537,0.11268 -0.30915,0.42184 -0.534527,0.53453 -0.23785,0.11893 -1.893641,-0.0815 -2.138128,0 -0.23906,0.0797 -0.30916,0.42185 -0.534537,0.53454 -0.15937,0.0797 -0.365497,-0.0564 -0.534537,0 -0.377967,0.12599 -0.691087,0.40855 -1.069064,0.53453 -0.367667,0.12256 -1.288224,-0.15769 -1.603611,0 -0.22538,0.11269 -0.309147,0.42185 -0.534527,0.53454 -0.335967,0.16798 -1.802181,-0.16799 -2.138147,0 -0.225377,0.11269 -0.309157,0.42185 -0.534537,0.53454 -0.318737,0.15936 -0.750334,-0.15937 -1.069074,0 -1.321051,0.66053 0.18451,0.53453 -1.069074,0.53453 -0.712704,0 -1.425421,0 -2.138135,0 -0.17818,0 -0.40855,-0.12599 -0.534537,0 -0.12599,0.126 0.159367,0.45486 0,0.53453 -0.31874,0.15937 -0.750337,-0.15935 -1.069074,0 -0.15937,0.0797 0.159367,0.45486 0,0.53454 -0.31874,0.15937 -0.712717,0 -1.069076,0 -0.178181,0 -0.408549,-0.12599 -0.53454,0 -0.125992,0.12599 0.125991,0.40855 0,0.53454 -0.02151,0.0215 -1.941854,0 -2.138157,0 -0.178178,0 -0.712718,0 -0.534537,0 0.356359,0 0.712718,0 1.069078,0"
       id="path3767"
       inkscape:connector-curvature="0" />
  </g>
</svg>
